<svg width="46" height="46" viewBox="0 0 46 46" fill="none" xmlns="http://www.w3.org/2000/svg">
<rect width="46" height="46" fill="black"/>
<path d="M27 0L31 3.79999C32.5 5.19999 33.3 7.1 33.3 9.2C33.3 11.2 34.1 13.1 35.5 14.5L36 15L40.6 0.0999908" fill="white"/>
<path d="M0 13.178L5.5 12.978C7.5 12.878 9.49999 13.678 10.9 15.078C12.3 16.478 14.2 17.178 16.2 17.178H16.9L9.5 3.47797" fill="white"/>
<path d="M13.6 45.378L13.3 39.878C13.2 37.878 13.9 35.878 15.3 34.378C16.6 32.978 17.4 30.978 17.3 29.078V28.378L3.7 36.078" fill="white"/>
<path d="M45.6 31.078L40.1 31.478C38.1 31.678 36.1 30.978 34.6 29.578C33.1 28.278 31.2 27.578 29.2 27.678H28.5L36.5 41.078" fill="white"/>
<line x1="22.1859" y1="6.61145" x2="22.1664" y2="14.4217" stroke="white"/>
<line x1="18.0674" y1="10.4213" x2="26.6688" y2="10.2901" stroke="white"/>
<line y1="-0.5" x2="8.00853" y2="-0.5" transform="matrix(0.666181 0.74579 -0.743048 0.669238 20.2225 26.2341)" stroke="white"/>
<line y1="-0.5" x2="8.81472" y2="-0.5" transform="matrix(0.731046 -0.682329 0.679303 0.733858 20.2354 32.7069)" stroke="white"/>
<line x1="3" y1="20.5" x2="13" y2="20.5" stroke="white"/>
<line x1="27" y1="19.5" x2="38" y2="19.5" stroke="white"/>
<circle cx="32" cy="17" r="1" fill="#D9D9D9"/>
<circle cx="32" cy="22" r="1" fill="#D9D9D9"/>
</svg>
